<svg xmlns="http://www.w3.org/2000/svg" xmlns:xlink="http://www.w3.org/1999/xlink" width="500" zoomAndPan="magnify" viewBox="0 0 375 374.999991" height="500" preserveAspectRatio="xMidYMid meet" version="1.2"><defs><clipPath id="cbf386f5a7"><path d="M 3.75 0 L 371.25 0 C 372.246094 0 373.199219 0.394531 373.902344 1.097656 C 374.605469 1.800781 375 2.753906 375 3.75 L 375 371.25 C 375 372.246094 374.605469 373.199219 373.902344 373.902344 C 373.199219 374.605469 372.246094 375 371.25 375 L 3.75 375 C 2.753906 375 1.800781 374.605469 1.097656 373.902344 C 0.394531 373.199219 0 372.246094 0 371.25 L 0 3.75 C 0 2.753906 0.394531 1.800781 1.097656 1.097656 C 1.800781 0.394531 2.753906 0 3.75 0 Z M 3.75 0 "/></clipPath><clipPath id="261075eede"><path d="M 210.628906 83.042969 L 266.445312 83.042969 L 266.445312 97.152344 L 210.628906 97.152344 Z M 210.628906 83.042969 "/></clipPath><clipPath id="4d665d138d"><path d="M 95.699219 276.132812 L 294.535156 276.132812 L 294.535156 288.78125 L 95.699219 288.78125 Z M 95.699219 276.132812 "/></clipPath><clipPath id="fe36f6b640"><path d="M 212.851562 30.503906 L 261.671875 30.503906 L 261.671875 79.320312 L 212.851562 79.320312 Z M 212.851562 30.503906 "/></clipPath><clipPath id="4842794eb7"><path d="M 237.261719 30.503906 C 223.78125 30.503906 212.851562 41.433594 212.851562 54.914062 C 212.851562 68.394531 223.78125 79.320312 237.261719 79.320312 C 250.742188 79.320312 261.671875 68.394531 261.671875 54.914062 C 261.671875 41.433594 250.742188 30.503906 237.261719 30.503906 Z M 237.261719 30.503906 "/></clipPath><clipPath id="78964a608c"><path d="M 211.324219 88 L 261.667969 88 L 261.667969 271.019531 L 211.324219 271.019531 Z M 211.324219 88 "/></clipPath><clipPath id="b982fd953b"><path d="M 257.917969 271.019531 L 215.074219 271.019531 C 214.078125 271.019531 213.125 270.625 212.421875 269.921875 C 211.71875 269.21875 211.324219 268.265625 211.324219 267.269531 L 211.324219 91.878906 C 211.324219 90.886719 211.71875 89.929688 212.421875 89.226562 C 213.125 88.523438 214.078125 88.128906 215.074219 88.128906 L 257.917969 88.128906 C 258.910156 88.128906 259.863281 88.523438 260.566406 89.226562 C 261.269531 89.929688 261.667969 90.886719 261.667969 91.878906 L 261.667969 267.269531 C 261.667969 268.265625 261.269531 269.21875 260.566406 269.921875 C 259.863281 270.625 258.910156 271.019531 257.917969 271.019531 Z M 257.917969 271.019531 "/></clipPath><clipPath id="f49f3188e6"><path d="M 113.6875 73.785156 L 164.03125 73.785156 L 164.03125 271.019531 L 113.6875 271.019531 Z M 113.6875 73.785156 "/></clipPath><clipPath id="6a47cd38fe"><path d="M 160.28125 271.019531 L 117.4375 271.019531 C 116.445312 271.019531 115.492188 270.625 114.789062 269.921875 C 114.085938 269.21875 113.6875 268.265625 113.6875 267.269531 L 113.6875 77.671875 C 113.6875 76.679688 114.085938 75.722656 114.789062 75.019531 C 115.492188 74.316406 116.445312 73.921875 117.4375 73.921875 L 160.28125 73.921875 C 161.277344 73.921875 162.230469 74.316406 162.933594 75.019531 C 163.636719 75.722656 164.03125 76.679688 164.03125 77.671875 L 164.03125 267.269531 C 164.03125 268.265625 163.636719 269.21875 162.933594 269.921875 C 162.230469 270.625 161.277344 271.019531 160.28125 271.019531 Z M 160.28125 271.019531 "/></clipPath><clipPath id="3e41c83728"><path d="M 139.773438 215.082031 L 191.664062 215.082031 L 191.664062 271.03125 L 139.773438 271.03125 Z M 139.773438 215.082031 "/></clipPath><clipPath id="f77c1cbd38"><path d="M 143.523438 215.082031 L 187.914062 215.082031 C 189.984375 215.082031 191.664062 216.761719 191.664062 218.832031 L 191.664062 267.277344 C 191.664062 269.347656 189.984375 271.027344 187.914062 271.027344 L 143.523438 271.027344 C 141.449219 271.027344 139.773438 269.347656 139.773438 267.277344 L 139.773438 218.832031 C 139.773438 216.761719 141.449219 215.082031 143.523438 215.082031 Z M 143.523438 215.082031 "/></clipPath><clipPath id="8f61392319"><path d="M 190.132812 30.46875 L 211.320312 30.46875 L 211.320312 131.609375 L 190.132812 131.609375 Z M 190.132812 30.46875 "/></clipPath><clipPath id="90c2fe4911"><path d="M 207.570312 131.609375 L 193.882812 131.609375 C 192.886719 131.609375 191.933594 131.214844 191.230469 130.511719 C 190.527344 129.808594 190.132812 128.851562 190.132812 127.859375 L 190.132812 34.25 C 190.132812 33.253906 190.527344 32.300781 191.230469 31.597656 C 191.933594 30.894531 192.886719 30.5 193.882812 30.5 L 207.570312 30.5 C 208.5625 30.5 209.515625 30.894531 210.222656 31.597656 C 210.925781 32.300781 211.320312 33.253906 211.320312 34.25 L 211.320312 127.859375 C 211.320312 128.851562 210.925781 129.808594 210.222656 130.511719 C 209.515625 131.214844 208.5625 131.609375 207.570312 131.609375 Z M 207.570312 131.609375 "/></clipPath><clipPath id="eaba201d51"><path d="M 113.632812 35.8125 L 190.855469 35.8125 L 190.855469 86.636719 L 113.632812 86.636719 Z M 113.632812 35.8125 "/></clipPath><clipPath id="caf40eace5"><path d="M 190.855469 39.5625 L 190.855469 82.886719 C 190.855469 83.878906 190.460938 84.835938 189.757812 85.539062 C 189.054688 86.242188 188.101562 86.636719 187.105469 86.636719 L 117.433594 86.636719 C 116.441406 86.636719 115.488281 86.242188 114.785156 85.539062 C 114.082031 84.835938 113.683594 83.878906 113.683594 82.886719 L 113.683594 39.5625 C 113.683594 38.570312 114.082031 37.617188 114.785156 36.914062 C 115.488281 36.207031 116.441406 35.8125 117.433594 35.8125 L 187.105469 35.8125 C 188.101562 35.8125 189.054688 36.207031 189.757812 36.914062 C 190.460938 37.617188 190.855469 38.570312 190.855469 39.5625 Z M 190.855469 39.5625 "/></clipPath><clipPath id="aaf3989211"><path d="M 281.929688 109.113281 L 304.0625 109.113281 L 304.0625 262.035156 L 281.929688 262.035156 Z M 281.929688 109.113281 "/></clipPath><clipPath id="cda2a6a051"><path d="M 300.3125 262.035156 L 285.679688 262.035156 C 284.6875 262.035156 283.730469 261.640625 283.027344 260.9375 C 282.324219 260.234375 281.929688 259.28125 281.929688 258.285156 L 281.929688 112.867188 C 281.929688 111.871094 282.324219 110.917969 283.027344 110.214844 C 283.730469 109.511719 284.6875 109.117188 285.679688 109.117188 L 300.3125 109.117188 C 301.304688 109.117188 302.257812 109.511719 302.960938 110.214844 C 303.664062 110.917969 304.0625 111.871094 304.0625 112.867188 L 304.0625 258.285156 C 304.0625 259.28125 303.664062 260.234375 302.960938 260.9375 C 302.257812 261.640625 301.304688 262.035156 300.3125 262.035156 Z M 300.3125 262.035156 "/></clipPath><clipPath id="1b5e09893e"><path d="M 92.257812 135.234375 L 283 135.234375 L 283 185.574219 L 92.257812 185.574219 Z M 92.257812 135.234375 "/></clipPath><clipPath id="d73009cb1a"><path d="M 92.257812 181.824219 L 92.257812 138.984375 C 92.257812 137.988281 92.652344 137.035156 93.355469 136.332031 C 94.058594 135.628906 95.011719 135.234375 96.007812 135.234375 L 279.109375 135.234375 C 280.105469 135.234375 281.058594 135.628906 281.761719 136.332031 C 282.464844 137.035156 282.859375 137.988281 282.859375 138.984375 L 282.859375 181.824219 C 282.859375 182.820312 282.464844 183.773438 281.761719 184.476562 C 281.058594 185.179688 280.105469 185.574219 279.109375 185.574219 L 96.007812 185.574219 C 95.011719 185.574219 94.058594 185.179688 93.355469 184.476562 C 92.652344 183.773438 92.257812 182.820312 92.257812 181.824219 Z M 92.257812 181.824219 "/></clipPath><clipPath id="00dbce7b19"><path d="M 139.773438 158.636719 L 188.589844 158.636719 L 188.589844 207.453125 L 139.773438 207.453125 Z M 139.773438 158.636719 "/></clipPath><clipPath id="2a0f0798cf"><path d="M 164.179688 158.636719 C 150.699219 158.636719 139.773438 169.5625 139.773438 183.042969 C 139.773438 196.523438 150.699219 207.453125 164.179688 207.453125 C 177.660156 207.453125 188.589844 196.523438 188.589844 183.042969 C 188.589844 169.5625 177.660156 158.636719 164.179688 158.636719 Z M 164.179688 158.636719 "/></clipPath></defs><g id="9453db34fa"><g clip-rule="nonzero" clip-path="url(#cbf386f5a7)"><rect x="0" width="375" y="0" height="374.999991" style="fill:#e7a034;fill-opacity:1;stroke:none;"/></g><g clip-rule="nonzero" clip-path="url(#261075eede)"><path style=" stroke:none;fill-rule:nonzero;fill:#e7a034;fill-opacity:1;" d="M 210.628906 83.042969 L 266.457031 83.042969 L 266.457031 97.152344 L 210.628906 97.152344 Z M 210.628906 83.042969 "/></g><g clip-rule="nonzero" clip-path="url(#4d665d138d)"><path style=" stroke:none;fill-rule:nonzero;fill:#e7a034;fill-opacity:1;" d="M 95.699219 288.78125 L 95.699219 276.132812 L 294.519531 276.132812 L 294.519531 288.78125 Z M 95.699219 288.78125 "/></g><g style="fill:#ffffff;fill-opacity:1;"><g transform="translate(86.976339, 327.848833)"><path style="stroke:none" d="M 10.609375 18.296875 L 5.484375 18.296875 L 5.484375 -32.203125 L 10.609375 -32.203125 L 10.609375 -26.703125 C 10.898438 -27.097656 11.21875 -27.46875 11.5625 -27.8125 C 14.582031 -31.21875 18.3125 -32.921875 22.75 -32.921875 C 27.195312 -32.921875 30.957031 -31.21875 34.03125 -27.8125 C 36.957031 -24.488281 38.421875 -20.582031 38.421875 -16.09375 C 38.421875 -11.601562 36.957031 -7.703125 34.03125 -4.390625 C 30.957031 -0.972656 27.195312 0.734375 22.75 0.734375 C 18.3125 0.734375 14.582031 -0.972656 11.5625 -4.390625 C 11.21875 -4.734375 10.898438 -5.097656 10.609375 -5.484375 Z M 33.296875 -16.09375 C 33.296875 -19.21875 32.222656 -21.953125 30.078125 -24.296875 C 27.878906 -26.640625 25.171875 -27.8125 21.953125 -27.8125 C 18.734375 -27.8125 16.050781 -26.640625 13.90625 -24.296875 C 11.707031 -21.953125 10.609375 -19.21875 10.609375 -16.09375 C 10.609375 -12.976562 11.707031 -10.25 13.90625 -7.90625 C 16.050781 -5.5625 18.734375 -4.390625 21.953125 -4.390625 C 25.171875 -4.390625 27.878906 -5.5625 30.078125 -7.90625 C 32.222656 -10.25 33.296875 -12.976562 33.296875 -16.09375 Z M 33.296875 -16.09375 "/></g></g><g style="fill:#ffffff;fill-opacity:1;"><g transform="translate(126.566016, 327.848833)"><path style="stroke:none" d="M 31.09375 -16.09375 C 31.09375 -19.21875 30.019531 -21.953125 27.875 -24.296875 C 25.675781 -26.640625 22.96875 -27.8125 19.75 -27.8125 C 16.53125 -27.8125 13.847656 -26.640625 11.703125 -24.296875 C 9.515625 -21.953125 8.421875 -19.21875 8.421875 -16.09375 C 8.421875 -12.976562 9.515625 -10.25 11.703125 -7.90625 C 13.847656 -5.5625 16.53125 -4.390625 19.75 -4.390625 C 22.96875 -4.390625 25.675781 -5.5625 27.875 -7.90625 C 30.019531 -10.25 31.09375 -12.976562 31.09375 -16.09375 Z M 36.21875 0 L 31.09375 0 L 31.09375 -5.484375 C 30.800781 -5.097656 30.507812 -4.734375 30.21875 -4.390625 C 27.144531 -0.972656 23.390625 0.734375 18.953125 0.734375 C 14.515625 0.734375 10.78125 -0.972656 7.75 -4.390625 C 4.78125 -7.703125 3.296875 -11.601562 3.296875 -16.09375 C 3.296875 -20.582031 4.78125 -24.488281 7.75 -27.8125 C 10.78125 -31.21875 14.515625 -32.921875 18.953125 -32.921875 C 23.390625 -32.921875 27.144531 -31.21875 30.21875 -27.8125 C 30.507812 -27.46875 30.800781 -27.097656 31.09375 -26.703125 L 31.09375 -32.203125 L 36.21875 -32.203125 Z M 36.21875 0 "/></g></g><g style="fill:#ffffff;fill-opacity:1;"><g transform="translate(166.155693, 327.848833)"><path style="stroke:none" d="M 22.03125 -25.53125 C 20.851562 -26.601562 19.582031 -27.140625 18.21875 -27.140625 C 16.90625 -27.140625 15.785156 -26.773438 14.859375 -26.046875 C 13.878906 -25.265625 13.070312 -24.335938 12.4375 -23.265625 C 11.21875 -21.117188 10.609375 -18.726562 10.609375 -16.09375 L 10.609375 0 L 5.484375 0 L 5.484375 -32.203125 L 10.609375 -32.203125 L 10.609375 -25.53125 L 10.828125 -26.859375 C 12.535156 -30.859375 15.195312 -32.859375 18.8125 -32.859375 C 19.925781 -32.859375 21 -32.640625 22.03125 -32.203125 Z M 22.03125 -25.53125 "/></g></g><g style="fill:#ffffff;fill-opacity:1;"><g transform="translate(186.792066, 327.848833)"><path style="stroke:none" d="M 36.953125 -16.828125 L 36.953125 -14.125 L 8.640625 -14.125 C 9.117188 -11.34375 10.457031 -9.070312 12.65625 -7.3125 C 14.90625 -5.507812 17.394531 -4.609375 20.125 -4.609375 C 21.976562 -4.609375 23.757812 -5.046875 25.46875 -5.921875 C 27.125 -6.753906 28.515625 -7.925781 29.640625 -9.4375 L 35.484375 -9.4375 C 34.117188 -6.363281 32.070312 -3.945312 29.34375 -2.1875 C 26.5625 -0.382812 23.753906 0.515625 20.921875 0.515625 C 18.046875 0.515625 15.609375 0.0703125 13.609375 -0.8125 C 11.554688 -1.6875 9.773438 -2.878906 8.265625 -4.390625 C 4.953125 -7.609375 3.296875 -11.5625 3.296875 -16.25 C 3.296875 -20.882812 4.953125 -24.859375 8.265625 -28.171875 C 11.535156 -31.441406 15.488281 -33.078125 20.125 -33.078125 C 24.613281 -33.078125 28.539062 -31.488281 31.90625 -28.3125 C 35.269531 -25.09375 36.953125 -21.265625 36.953125 -16.828125 Z M 31.53125 -18.515625 C 30.945312 -21.242188 29.582031 -23.507812 27.4375 -25.3125 C 25.289062 -27.070312 22.851562 -27.953125 20.125 -27.953125 C 15.925781 -27.953125 12.632812 -26.070312 10.25 -22.3125 C 9.507812 -21.144531 8.992188 -19.878906 8.703125 -18.515625 Z M 31.53125 -18.515625 "/></g></g><g style="fill:#ffffff;fill-opacity:1;"><g transform="translate(224.55227, 327.848833)"><path style="stroke:none" d="M 27.734375 0 L 27.734375 -20.125 C 27.734375 -22.21875 27.269531 -24.019531 26.34375 -25.53125 C 25.363281 -27 23.773438 -27.734375 21.578125 -27.734375 C 19.390625 -27.734375 17.613281 -27.316406 16.25 -26.484375 C 14.882812 -25.660156 13.785156 -24.585938 12.953125 -23.265625 C 11.390625 -20.828125 10.609375 -17.5625 10.609375 -13.46875 L 10.609375 0 L 5.484375 0 L 5.484375 -32.203125 L 10.609375 -32.203125 L 10.609375 -26.640625 C 11.679688 -28.441406 13.046875 -29.925781 14.703125 -31.09375 C 16.460938 -32.269531 18.488281 -32.859375 20.78125 -32.859375 C 23.070312 -32.859375 24.925781 -32.539062 26.34375 -31.90625 C 27.757812 -31.21875 28.953125 -30.316406 29.921875 -29.203125 C 31.878906 -26.898438 32.859375 -23.875 32.859375 -20.125 L 32.859375 0 Z M 27.734375 0 "/></g></g><g style="fill:#ffffff;fill-opacity:1;"><g transform="translate(259.678035, 327.848833)"><path style="stroke:none" d="M 1.46875 -27.4375 L 1.46875 -32.203125 L 9.515625 -32.203125 L 9.515625 -44.703125 L 14.640625 -44.703125 L 14.640625 -32.203125 L 22.609375 -32.203125 L 22.609375 -27.4375 L 14.640625 -27.4375 L 14.640625 0 L 9.515625 0 L 9.515625 -27.4375 Z M 1.46875 -27.4375 "/></g></g><g clip-rule="nonzero" clip-path="url(#fe36f6b640)"><g clip-rule="nonzero" clip-path="url(#4842794eb7)"><path style=" stroke:none;fill-rule:nonzero;fill:#ffffff;fill-opacity:1;" d="M 212.851562 30.503906 L 261.671875 30.503906 L 261.671875 79.320312 L 212.851562 79.320312 Z M 212.851562 30.503906 "/></g></g><g clip-rule="nonzero" clip-path="url(#78964a608c)"><g clip-rule="nonzero" clip-path="url(#b982fd953b)"><path style=" stroke:none;fill-rule:nonzero;fill:#ffffff;fill-opacity:1;" d="M 261.667969 271.019531 L 211.324219 271.019531 L 211.324219 88.140625 L 261.667969 88.140625 Z M 261.667969 271.019531 "/></g></g><g clip-rule="nonzero" clip-path="url(#f49f3188e6)"><g clip-rule="nonzero" clip-path="url(#6a47cd38fe)"><path style=" stroke:none;fill-rule:nonzero;fill:#ffffff;fill-opacity:1;" d="M 164.03125 271.019531 L 113.6875 271.019531 L 113.6875 73.980469 L 164.03125 73.980469 Z M 164.03125 271.019531 "/></g></g><g clip-rule="nonzero" clip-path="url(#3e41c83728)"><g clip-rule="nonzero" clip-path="url(#f77c1cbd38)"><path style=" stroke:none;fill-rule:nonzero;fill:#545454;fill-opacity:1;" d="M 139.773438 215.082031 L 191.664062 215.082031 L 191.664062 271.03125 L 139.773438 271.03125 Z M 139.773438 215.082031 "/></g></g><g clip-rule="nonzero" clip-path="url(#8f61392319)"><g clip-rule="nonzero" clip-path="url(#90c2fe4911)"><path style=" stroke:none;fill-rule:nonzero;fill:#e7a034;fill-opacity:1;" d="M 211.320312 131.609375 L 190.132812 131.609375 L 190.132812 30.46875 L 211.320312 30.46875 Z M 211.320312 131.609375 "/></g></g><g clip-rule="nonzero" clip-path="url(#eaba201d51)"><g clip-rule="nonzero" clip-path="url(#caf40eace5)"><path style=" stroke:none;fill-rule:nonzero;fill:#ffffff;fill-opacity:1;" d="M 190.855469 35.8125 L 190.855469 86.636719 L 113.632812 86.636719 L 113.632812 35.8125 Z M 190.855469 35.8125 "/></g></g><g clip-rule="nonzero" clip-path="url(#aaf3989211)"><g clip-rule="nonzero" clip-path="url(#cda2a6a051)"><path style=" stroke:none;fill-rule:nonzero;fill:#e7a034;fill-opacity:1;" d="M 304.0625 262.035156 L 281.929688 262.035156 L 281.929688 109.113281 L 304.0625 109.113281 Z M 304.0625 262.035156 "/></g></g><g clip-rule="nonzero" clip-path="url(#1b5e09893e)"><g clip-rule="nonzero" clip-path="url(#d73009cb1a)"><path style=" stroke:none;fill-rule:nonzero;fill:#ffffff;fill-opacity:1;" d="M 92.257812 185.574219 L 92.257812 135.234375 L 282.808594 135.234375 L 282.808594 185.574219 Z M 92.257812 185.574219 "/></g></g><g clip-rule="nonzero" clip-path="url(#00dbce7b19)"><g clip-rule="nonzero" clip-path="url(#2a0f0798cf)"><path style=" stroke:none;fill-rule:nonzero;fill:#545454;fill-opacity:1;" d="M 139.773438 158.636719 L 188.589844 158.636719 L 188.589844 207.453125 L 139.773438 207.453125 Z M 139.773438 158.636719 "/></g></g></g></svg>